# xmcd
#
# Track frame offsets:
#	150
#	16763
#	36896
#	56386
#	73197
#	92463
#	107986
#	136856
#	153727
#	171804
#	185679
#
# Disc length: 2705 seconds
# Revision: 0
# Processed by: cddbd v1.5.2PL0 Copyright (c) Steve Scherf et al.
# Submitted via: dBpowerAMP V12.0
#
DISCID=8f0a8f0b
DTITLE=Tellico - Relics and Roses
DYEAR=2015
DGENRE=Country
TTITLE0=Backstep Blues
TTITLE1=Calamity
TTITLE2=Can't Go Home Again
TTITLE3=I Want to Know
TTITLE4=Ever What They Say
TTITLE5=Hawkeye Pierce and Honeycutt Blues
TTITLE6=Forsaken Winds
TTITLE7=Mexico 1995
TTITLE8=Morning Haze
TTITLE9=Lean Into It
TTITLE10=White Line - River of Pride
EXTD=
EXTT0=
EXTT1=
EXTT2=
EXTT3=
EXTT4=
EXTT5=
EXTT6=
EXTT7=
EXTT8=
EXTT9=
EXTT10=
PLAYORDER=
